HIERARCHY
ROOT pelvis
{
  OFFSET 0 100 0
  CHANNELS 6 Xposition Yposition Zposition Zrotation Xrotation Yrotation
  JOINT pelvis_right_femur
  {
    OFFSET -10.78128 -3.44521 -0.5502486
    CHANNELS 3 Zrotation Xrotation Yrotation
    JOINT right_femur_tibia
    {
      OFFSET -0.8047443 -44.0398 -0.1307829
      CHANNELS 3 Zrotation Xrotation Yrotation
      JOINT right_tibia_foot
      {
        OFFSET 3.006224 -47.83518 -5
        CHANNELS 3 Zrotation Xrotation Yrotation
        End Site
        {
          OFFSET 0 -5 15
        }
      }
    }
  }
  JOINT pelvis_left_femur
  {
    OFFSET 10.78128 -3.44521 -0.5502486
    CHANNELS 3 Zrotation Xrotation Yrotation
    JOINT left_femur_tibia
    {
      OFFSET 0.8047443 -44.0398 -0.1307829
      CHANNELS 3 Zrotation Xrotation Yrotation
      JOINT left_tibia_foot
      {
        OFFSET -4.370144 -48.10324 -4.275266
        CHANNELS 3 Zrotation Xrotation Yrotation
        End Site
        {
          OFFSET 0 -5 15
        }
      }
    }
  }
  JOINT pelvis_spine1
  {
    OFFSET 0 6.468898 -3.129235
    CHANNELS 3 Zrotation Xrotation Yrotation
    JOINT spine1
    {
      OFFSET 0 23.15396 4.99043
      CHANNELS 3 Zrotation Xrotation Yrotation
      JOINT spine2
      {
        OFFSET 0 20.79997 -5.064912
        CHANNELS 3 Zrotation Xrotation Yrotation
        JOINT neck
        {
          OFFSET 0 14.38658 9.616178
          CHANNELS 3 Zrotation Xrotation Yrotation
          End Site
          {
            OFFSET 0 20 0
          }
        }
      }
      JOINT right_manubrium
      {
        OFFSET -5.722621 16.35077 3.967754
        CHANNELS 3 Zrotation Xrotation Yrotation
        JOINT right_clavicle
        {
          OFFSET -13.16364 1.694482 -4.693211
          CHANNELS 3 Zrotation Xrotation Yrotation
          JOINT right_humerus
          {
            OFFSET -28.5034 -0.3100689 -2.792744
            CHANNELS 3 Zrotation Xrotation Yrotation
            JOINT right_radius
            {
              OFFSET -25.15693 0.02248979 -1.271978
              CHANNELS 3 Zrotation Xrotation Yrotation
              End Site
              {
                OFFSET -15 0 0
              }
            }
          }
        }
      }
      JOINT left_manubrium
      {
        OFFSET 5.722621 16.35077 3.967754
        CHANNELS 3 Zrotation Xrotation Yrotation
        JOINT left_clavicle
        {
          OFFSET 13.16364 1.694482 -4.693211
          CHANNELS 3 Zrotation Xrotation Yrotation
          JOINT left_humerus
          {
            OFFSET 29.39168 -1.063119 -2.237045
            CHANNELS 3 Zrotation Xrotation Yrotation
            JOINT left_radius
            {
              OFFSET 24.59957 -0.9528479 0.9047498
              CHANNELS 3 Zrotation Xrotation Yrotation
              End Site
              {
                OFFSET 15 -0 -0
              }
            }
          }
        }
      }
    }
  }
}
MOTION
Frames: 23
Frame Time: 0.0416666666667
1556.003 102.9663 2642.531 6.323883 -4.487391 47.9853 4.570845 1.333695 5.794794 -0 14.49343 -0 -0.3577156 -9.626097 -4.641302 -1.975035 -9.034328 -5.824516 -0 57.61515 -0 -8.79186 -6.117553 16.67542 -0.8416402 1.188515 6.985977 0.2549307 10.68254 -4.722006 2.01038 22.7616 5.995962 3.172099 -17.33975 7.163223 3.586763 -16.38402 11.68593 85.90944 28.66099 -16.63786 -0 0 13.06037 -21.60269 14.93984 9.786695 4.980228 -19.30929 -3.111426 -89.45422 23.87459 16.36065 0 0 -18.85572 0.6903402 7.548796 12.84134
1560.427 103.2401 2646.399 6.139559 -4.165858 47.24614 4.208677 5.41996 5.575101 -0 13.39739 -0 0.05302434 -10.74826 -3.419228 -1.050586 -15.48277 -4.867535 -0 51.34326 -0 -8.374531 -6.68196 17.49366 -0.960898 1.445266 7.80728 -0.2487301 10.63867 -3.988155 1.919614 22.57707 6.155335 3.304452 -17.32496 7.108284 3.364059 -17.77371 11.8946 83.82765 28.89355 -13.87167 -0 0 15.99919 -23.22969 15.00824 11.04857 5.127189 -18.70314 -2.901155 -90.84111 23.75026 19.22588 0 0 -17.90784 0.02658649 7.26028 13.72994
1564.997 102.9223 2650.219 5.84925 -3.994261 46.60615 3.909459 9.237596 5.352226 -0 13.03482 -0 0.7661415 -12.35238 -2.490942 0.01618538 -20.39333 -3.928467 -0 42.49885 -0 -8.084636 -7.249426 18.22291 -0.9117626 1.537315 8.217363 -0.6770953 10.2832 -3.376916 1.861932 22.38586 6.196974 3.166618 -17.28277 7.15205 2.768546 -19.08771 11.86226 82.03475 28.2428 -11.04456 -0 0 18.9349 -24.72897 14.79837 12.33524 5.234175 -17.77193 -2.692966 -91.90268 23.64828 21.4787 0 0 -16.59085 -0.7029256 6.854536 14.51837
1569.805 102.1012 2654.08 5.5728 -3.999545 46.03288 3.611142 12.79009 5.199897 -0 13.68784 -0 1.714088 -14.34133 -1.899195 0.9123242 -23.67773 -3.275077 -0 33.26531 -0 -7.963103 -7.61581 18.86431 -0.7483424 1.45852 8.362206 -1.01153 9.707814 -2.877851 1.866142 22.25068 6.127328 2.8372 -17.18871 7.284013 1.933529 -20.19374 11.60185 80.75089 26.83782 -8.529508 -0 0 21.6158 -25.89875 14.31032 13.41638 5.256134 -16.6022 -2.503378 -92.76427 23.65039 23.20435 0 0 -14.82171 -1.503747 6.407609 15.27858
1574.913 100.9791 2658.045 5.367328 -4.074134 45.49054 3.194273 15.89917 5.163185 -0 15.56843 -0 2.79485 -16.1317 -1.575944 1.339077 -25.54869 -3.091612 -0 25.41874 -0 -7.934775 -7.77643 19.35089 -0.5990664 1.200153 8.451325 -1.274032 9.091282 -2.487855 1.936143 22.14894 6.006662 2.466977 -17.07132 7.470663 1.087384 -21.02688 11.20306 80.01631 25.12064 -6.616597 -0 0 23.86796 -26.74912 13.71126 14.18824 5.185815 -15.40585 -2.35758 -93.51494 23.74531 24.61775 0 0 -12.8255 -2.328443 5.988935 16.09452
1580.358 99.84792 2662.141 5.235685 -4.026555 44.98394 2.535952 18.16707 5.263449 -0 18.96922 -0 3.859466 -16.76602 -1.436493 1.084311 -26.21388 -3.433088 -0 20.24325 -0 -7.800325 -7.832641 19.55538 -0.6365582 0.7395289 8.656996 -1.494217 8.667596 -2.252113 2.04186 21.99558 5.923111 2.227944 -17.00477 7.655805 0.5345915 -21.5513 10.8131 79.72513 23.77783 -5.522774 -0 0 25.48763 -27.42289 13.29931 14.65491 5.021276 -14.47747 -2.290421 -94.10855 23.83276 25.88306 0 0 -11.06404 -3.03197 5.679389 16.94042
1586.132 99.05668 2666.354 5.178619 -3.680872 44.5913 1.59976 19.005 5.481315 -0 24.29716 -0 4.698862 -15.13025 -1.47487 0.07213941 -25.6964 -4.216471 -0 18.52304 -0 -7.276268 -7.942035 19.3693 -1.034449 0.07912888 9.023628 -1.680448 8.684696 -2.268824 2.119556 21.70142 5.963688 2.265491 -17.07609 7.766261 0.6059099 -21.73085 10.61243 79.7383 23.59535 -5.414962 -0 0 26.17701 -28.07 13.42254 14.87266 4.755031 -14.12883 -2.349708 -94.35989 23.75496 26.9846 0 0 -10.05513 -3.37341 5.587149 17.59925
1592.138 98.90959 2670.609 5.229147 -3.060267 44.4643 0.5758632 17.85962 5.711197 -0 31.77362 -0 5.122138 -10.68555 -1.792104 -1.517376 -23.84666 -5.213968 -0 19.95984 -0 -6.206254 -8.290552 18.82585 -1.824479 -0.6504979 9.364643 -1.799041 9.259795 -2.624348 2.089617 21.27093 6.173209 2.596987 -17.31893 7.758478 1.451478 -21.55027 10.73167 80.05069 24.97202 -6.304579 -0 0 25.70484 -28.68916 14.23966 14.917 4.397532 -14.49561 -2.577925 -94.08784 23.40559 27.68988 0 0 -10.01022 -3.160782 5.761254 17.75481
1598.173 99.47727 2674.789 5.456531 -2.560998 44.76112 -0.1225115 14.66641 5.792033 -0 40.65327 -0 5.146402 -4.721997 -2.539167 -3.189263 -20.53549 -6.146532 -0 22.54873 -0 -4.915426 -9.017116 18.15146 -2.701628 -1.115278 9.286348 -1.79264 10.13862 -3.252679 1.932908 20.90153 6.485177 2.979435 -17.6103 7.711007 2.672539 -21.0635 11.0743 80.87858 27.07647 -7.876664 -0 0 24.28733 -28.98034 15.35036 14.82507 4.024353 -15.26776 -2.961471 -93.34084 22.93259 27.61151 0 0 -10.49496 -2.53477 6.012195 17.35447
1604.005 100.5058 2678.776 5.93483 -2.682978 45.52616 -0.2498502 10.00214 5.662833 -0 48.71816 -0 5.000847 -0.1590803 -3.796731 -4.419817 -15.87793 -6.872588 -0 23.82448 -0 -4.091825 -10.12521 17.57191 -3.181868 -1.005384 8.529505 -1.650122 10.76159 -3.918823 1.764209 20.87877 6.719664 3.02785 -17.67926 7.807872 3.413986 -20.35443 11.29135 82.35834 28.10802 -9.600067 -0 0 22.55747 -28.55207 15.97471 14.53916 3.773468 -15.87188 -3.40879 -92.27822 22.71896 26.29869 0 0 -10.91406 -1.929814 6.024548 16.74103
1609.508 101.6183 2682.529 6.614065 -3.385685 46.63806 -0.02579549 4.575566 5.378468 -0 53.58577 -0 4.81553 1.296331 -5.391891 -5.065114 -10.30066 -7.404071 -0 23.1569 -0 -3.968673 -11.49949 17.0931 -3.151736 -0.4297293 7.264022 -1.408009 10.82855 -4.488456 1.709017 21.24756 6.768928 2.64534 -17.38241 8.119888 3.291787 -19.44182 11.15636 84.2171 27.44549 -11.17169 -0 0 20.85115 -27.49287 15.89 14.05158 3.736761 -16.16336 -3.823071 -90.81544 22.90287 23.50295 0 0 -11.43121 -1.510505 5.808228 16.08565
1614.684 102.5416 2686.087 7.245523 -4.138971 47.90066 0.1922728 -1.192319 4.947062 -0 54.44947 -0 4.520312 0.4167679 -6.939457 -5.311502 -4.400811 -7.79305 -0 21.33639 -0 -4.151296 -12.99929 16.60045 -2.90618 0.2245712 5.858551 -1.083066 10.50886 -5.049385 1.738005 21.76974 6.724865 2.100167 -16.86791 8.527406 2.723103 -18.34841 10.79373 86.02261 26.23531 -12.67998 -0 0 19.04851 -26.32846 15.57823 13.51951 3.909131 -16.48651 -4.167752 -88.84132 23.20195 19.51958 0 0 -12.65406 -1.076469 5.654032 15.21832
1619.601 103.1002 2689.532 7.591387 -4.547193 49.1462 0.2301153 -7.063388 4.31475 -0 51.5889 -0 4.057515 -1.426496 -8.162993 -5.359764 1.320113 -8.095569 -0 19.026 -0 -4.282582 -14.54648 16.0505 -2.698424 0.7058872 4.569228 -0.6897998 10.05287 -5.687698 1.767601 22.21976 6.719146 1.667816 -16.34481 8.891644 2.174332 -17.16394 10.40556 87.54344 25.56443 -14.30916 -0 0 17.05387 -25.43762 15.45648 13.0716 4.278891 -17.12535 -4.451109 -86.51225 23.31559 14.94362 0 0 -14.85171 -0.4790966 5.746564 14.05372
1624.358 103.1693 2692.97 7.579133 -4.51716 50.26022 0.06843815 -12.74871 3.466894 -0 45.44616 -0 3.478411 -3.323435 -8.990372 -5.316361 6.510695 -8.339764 -0 16.72388 -0 -4.302175 -16.10282 15.48967 -2.602445 0.9454573 3.537607 -0.2738327 9.598476 -6.369572 1.786568 22.4946 6.782172 1.473569 -15.92912 9.138594 1.787258 -15.99942 10.0873 88.77903 25.64809 -16.1379 -0 0 14.94107 -24.91631 15.61442 12.6992 4.861575 -18.12595 -4.691797 -84.14755 23.12279 10.34592 0 0 -17.89527 0.2795021 6.099727 12.68829
1629.07 102.7086 2696.512 7.255493 -4.121342 51.17914 -0.200331 -17.81076 2.502654 -0 36.92968 -0 2.899603 -4.571921 -9.448487 -5.234715 10.87038 -8.500531 -0 15.05347 -0 -4.307209 -17.56458 14.97359 -2.595738 0.9452929 2.851171 0.1046948 9.242387 -7.002417 1.83131 22.55034 6.860357 1.534904 -15.70187 9.227733 1.53773 -14.98495 9.875452 89.82201 26.19579 -18.11828 -0 0 12.88531 -24.69672 15.96346 12.3266 5.627012 -19.38129 -4.896402 -82.11411 22.66331 6.330739 0 0 -21.38108 1.112998 6.625965 11.33782
1633.856 101.8055 2700.257 6.748867 -3.556384 51.89547 -0.3541844 -21.75622 1.681973 -0 27.85139 -0 2.428455 -4.725048 -9.63206 -5.130082 14.21608 -8.525296 -0 14.66573 -0 -4.461081 -18.70563 14.51098 -2.595667 0.7529915 2.505774 0.4051052 9.052961 -7.502554 1.935471 22.39884 6.857622 1.764417 -15.72315 9.150895 1.358347 -14.24066 9.773324 90.75108 26.69864 -20.06432 -0 0 11.09754 -24.55369 16.31324 11.85922 6.43085 -20.65784 -5.046841 -80.70606 22.14002 3.450969 0 0 -24.66491 1.870559 7.169077 10.28556
1638.806 100.666 2704.273 6.234877 -3.097784 52.44402 -0.1254553 -24.2548 1.337781 -0 20.39583 -0 2.093194 -3.942789 -9.696605 -4.974025 16.60631 -8.39554 -0 15.97485 -0 -4.913998 -19.23603 14.0734 -2.496562 0.4660408 2.374701 0.6310175 9.01675 -7.834055 2.103 22.13611 6.690487 1.989657 -15.97355 8.95437 1.189799 -13.78661 9.739258 91.56446 26.69658 -21.69708 -0 0 9.707698 -24.16923 16.45362 11.22099 7.048124 -21.6549 -5.10523 -79.99629 21.81335 1.884655 0 0 -27.06333 2.410397 7.573998 9.713583
1643.956 99.54917 2708.582 5.855196 -2.950098 52.86006 0.5953365 -25.24773 1.626839 -0 15.88035 -0 1.838129 -2.899723 -9.761381 -4.728536 18.22826 -8.158272 -0 19.01235 -0 -5.686518 -18.9491 13.66129 -2.242598 0.1926163 2.294604 0.8188768 9.05022 -8.008931 2.29998 21.90319 6.357993 2.06922 -16.34636 8.716401 1.029125 -13.52304 9.718431 92.1944 26.09951 -22.79917 -0 0 8.682606 -23.36393 16.28903 10.42477 7.312259 -22.16411 -5.043532 -79.84942 21.80284 1.356733 0 0 -28.19624 2.705898 7.775966 9.549344
1649.29 98.69225 2713.164 5.662115 -3.139694 53.1458 1.677588 -24.84568 2.410681 -0 14.19147 -0 1.58798 -2.236451 -9.82622 -4.393342 19.1482 -7.887841 -0 23.56752 -0 -6.646556 -17.80948 13.33768 -1.857712 -0.003183749 2.192753 0.9999079 9.087482 -8.055029 2.472434 21.80027 5.947775 1.99004 -16.7208 8.491796 0.9337225 -13.33221 9.698942 92.58308 25.20655 -23.33953 -0 0 7.897449 -22.23693 15.88784 9.587666 7.208586 -22.17684 -4.870855 -80.08742 22.03002 1.464076 0 0 -28.12115 2.835517 7.809397 9.559726
1654.752 98.26904 2717.956 5.635941 -3.560653 53.2687 2.878922 -23.17232 3.409109 -0 14.3897 -0 1.294177 -2.250021 -9.802171 -4.007494 19.20733 -7.64209 -0 29.42875 -0 -7.614476 -15.91053 13.1882 -1.407652 -0.109167 2.120805 1.177725 9.129055 -7.98695 2.57322 21.85215 5.573293 1.841264 -17.02455 8.289208 0.9824308 -13.17354 9.719337 92.69981 24.43566 -23.42495 -0 0 7.278644 -21.03824 15.39849 8.850193 6.828365 -21.82626 -4.624275 -80.62079 22.35565 2.004657 0 0 -27.14589 2.869861 7.747614 9.583349
1660.247 98.37571 2722.853 5.730199 -4.066417 53.1791 3.972856 -20.31712 4.376732 -0 15.4633 -0 0.9347676 -2.985341 -9.577232 -3.625721 18.06199 -7.454805 -0 36.42239 -0 -8.451914 -13.43224 13.27685 -0.9647863 -0.1293503 2.212406 1.327729 9.219221 -7.794299 2.577159 22.034 5.324033 1.740035 -17.23507 8.092011 1.239741 -13.09159 9.834013 92.50249 24.11887 -23.17275 -0 0 6.878948 -19.99872 14.95498 8.308324 6.289729 -21.27965 -4.341388 -81.46618 22.70705 3.032629 0 0 -25.60739 2.809054 7.661002 9.633285
1665.65 99.01462 2727.714 5.902936 -4.511839 52.83642 4.779673 -16.4196 5.15444 -0 16.58174 -0 0.512058 -4.340444 -9.058458 -3.302013 15.29173 -7.32681 -0 44.18297 -0 -9.068048 -10.69519 13.63238 -0.6078451 -0.05148423 2.628107 1.400823 9.408837 -7.445107 2.489439 22.29721 5.248642 1.785622 -17.35549 7.885431 1.724017 -13.18221 10.08048 91.92458 24.43419 -22.63312 -0 0 6.867761 -19.29233 14.64636 8.011616 5.714715 -20.69433 -4.048541 -82.6872 23.07876 4.72672 0 0 -23.81359 2.610342 7.6077 9.841229
1670.839 100.0707 2732.393 6.123412 -4.770828 52.24191 5.182592 -11.78977 5.66456 -0 17.11078 -0 0.06964782 -6.034291 -8.205592 -3.061142 10.61879 -7.199222 -0 51.78456 -0 -9.397372 -8.212367 14.2435 -0.4220468 0.1528025 3.475498 1.334342 9.72378 -6.908395 2.348682 22.57331 5.344463 2.029133 -17.39936 7.66874 2.371026 -13.55243 10.45867 90.9057 25.3632 -21.76576 -0 0 7.461884 -19.06596 14.52033 7.990784 5.232159 -20.2038 -3.76532 -84.29998 23.45733 7.197785 0 0 -22.06649 2.249614 7.618982 10.33412
